<svg xmlns="http://www.w3.org/2000/svg" viewBox="0 0 327.58 47.17"><defs><style>.cls-1{fill:#dfb405;}.cls-2{fill:#ff7315;}.cls-3{fill:#fff;}</style></defs><title>StartupFund Black_1</title><g id="Layer_2" data-name="Layer 2"><g id="Layer_1-2" data-name="Layer 1"><g id="_Group_" data-name="&lt;Group&gt;"><path d="M45.6,5.4a15.07,15.07,0,0,1,.08,21.21,7.91,7.91,0,0,1-.86,1.13h0A4.37,4.37,0,0,1,41.93,29a4.41,4.41,0,0,1-4.15,4.15,4.37,4.37,0,0,1-1.28,2.86,4.28,4.28,0,0,1-2.87,1.28,4.38,4.38,0,0,1-1.28,2.87l-2.68,2.68a4.4,4.4,0,0,1-7.25-1.64,4.4,4.4,0,0,1-5.86-3.91,4.31,4.31,0,0,1-2.87-1.28,4.4,4.4,0,0,1-1.28-2.86A4.34,4.34,0,0,1,9.54,31.9l-5.4-5.52A14.24,14.24,0,0,1,3.63,6.84L4.82,5.52A16.12,16.12,0,0,1,25.06,2.4,16.31,16.31,0,0,1,43.73,3.53C43.83,3.62,43.75,3.55,45.6,5.4Zm-.23,16.86a12.18,12.18,0,0,0-1.83-14.8L41.81,5.74c-7.7-6.27-16.26-.17-16.27-.16-1.85,1.32-2.29,2.14-8.61,8.56A5.71,5.71,0,0,0,23,14l7.51-5a1.48,1.48,0,0,1,1.83.16l.42.41a4.25,4.25,0,0,0,5.91-.06,1.47,1.47,0,1,1,2.08,2.07,7.2,7.2,0,0,1-3.91,2C45.24,22.05,44.92,21.57,45.37,22.26Zm-2.72,3.48a1.48,1.48,0,0,0,.06-2.12C42.53,23.43,31.2,12.1,31.13,12L24.57,16.4A8.65,8.65,0,0,1,13.7,15.33a1.46,1.46,0,0,1,0-2.06l8-8.24.76-.72A13.23,13.23,0,0,0,7,7.47L5.8,8.79a11.28,11.28,0,0,0,.42,15.52h0l2.47,2.51a4.11,4.11,0,0,1,.83-1.16l4.14-4.15a4.4,4.4,0,0,1,7.5,2.87,4.41,4.41,0,0,1,4.15,4.15,4.37,4.37,0,0,1,2.86,1.28,4.28,4.28,0,0,1,1.28,2.87A4.38,4.38,0,0,1,32.34,34a1.47,1.47,0,0,0,2.08-2.08l-8.29-8.28a1.47,1.47,0,1,1,2.07-2.08l8.29,8.29a1.47,1.47,0,1,0,2.07-2.08l-8.27-8.27a1.47,1.47,0,1,1,2.07-2.08l8.29,8.29A1.45,1.45,0,0,0,42.65,25.74ZM30.29,38.12A1.47,1.47,0,0,0,28.21,36l-2.68,2.68a1.47,1.47,0,0,0,2.08,2.08ZM26.14,34a1.46,1.46,0,0,0,0-2.08,1.5,1.5,0,0,0-2.08,0l-4.15,4.15a1.5,1.5,0,0,0,0,2.08,1.48,1.48,0,0,0,2.08,0ZM22,29.84a1.46,1.46,0,0,0,0-2.08,1.5,1.5,0,0,0-2.08,0L15.78,31.9A1.47,1.47,0,0,0,17.85,34Zm-4.15-4.15a1.46,1.46,0,1,0-2.07-2.07l-4.15,4.14a1.48,1.48,0,0,0,0,2.07h0a1.45,1.45,0,0,0,2.06,0h0Z"/><path class="cls-1" d="M43.54,7.47a12.16,12.16,0,0,1,1.83,14.8c-.45-.69-.13-.22-8.59-8.72a7.07,7.07,0,0,0,3.91-2,1.47,1.47,0,1,0-2.08-2.07,4.25,4.25,0,0,1-5.91.06l-.42-.41A1.48,1.48,0,0,0,30.45,9l-7.51,5a5.71,5.71,0,0,1-6,.17c6.32-6.42,6.77-7.25,8.61-8.56,0,0,8.57-6.11,16.27.17Z"/><path class="cls-2" d="M6.26,24.33h0l0,0A11.29,11.29,0,0,1,5.81,8.79L7,7.47A13.23,13.23,0,0,1,22.43,4.31c-.26.24-.52.47-.76.72l-8,8.24a1.46,1.46,0,0,0,0,2.06A8.65,8.65,0,0,0,24.59,16.4L31.15,12,42.73,23.62a1.48,1.48,0,0,1-.06,2.12,1.46,1.46,0,0,1-2,0L32.37,17.4a1.47,1.47,0,0,0-2.07,2.08l8.28,8.28a1.47,1.47,0,1,1-2.07,2.08l-8.29-8.29a1.47,1.47,0,0,0-2.07,2.08l8.29,8.28A1.47,1.47,0,1,1,32.36,34a4.36,4.36,0,0,0-2.87-1.28,4.28,4.28,0,0,0-1.28-2.87,4.4,4.4,0,0,0-2.86-1.28,4.34,4.34,0,0,0-1.29-2.87,4.4,4.4,0,0,0-2.86-1.28,4.32,4.32,0,0,0-1.29-2.87,4.4,4.4,0,0,0-6.21,0L9.56,25.69a4.61,4.61,0,0,0-.83,1.15L6.26,24.33Z"/><path class="cls-1" d="M30.29,36.05a1.5,1.5,0,0,1,0,2.08l-2.68,2.68a1.47,1.47,0,0,1-2.08-2.08l2.68-2.68A1.48,1.48,0,0,1,30.29,36.05Z"/><path class="cls-1" d="M26.14,31.9a1.46,1.46,0,0,1,0,2.08L22,38.12a1.48,1.48,0,0,1-2.08,0,1.5,1.5,0,0,1,0-2.08l4.15-4.15A1.49,1.49,0,0,1,26.14,31.9Z"/><path class="cls-1" d="M22,27.76a1.46,1.46,0,0,1,0,2.08L17.86,34a1.47,1.47,0,1,1-2.07-2.08l4.14-4.15A1.47,1.47,0,0,1,22,27.76Z"/><path class="cls-1" d="M17.85,23.62a1.47,1.47,0,0,1,0,2.07L13.7,29.84h0a1.45,1.45,0,0,1-2.06,0h0a1.47,1.47,0,0,1,0-2.07l4.15-4.14A1.45,1.45,0,0,1,17.85,23.62Z"/><path d="M6.26,24.34Z"/></g><path class="cls-3" d="M81.07,32a8.43,8.43,0,0,1-3.53,3.15,12.48,12.48,0,0,1-5.65,1.17,13.33,13.33,0,0,1-8.23-2.43,8.82,8.82,0,0,1-3.53-6.81h7.65A4,4,0,0,0,69,29.7a3.71,3.71,0,0,0,2.63,1,3.06,3.06,0,0,0,2.18-.76,2.66,2.66,0,0,0,.8-2A2.63,2.63,0,0,0,73.84,26,5.72,5.72,0,0,0,72,24.77c-.73-.33-1.74-.71-3-1.16a37.21,37.21,0,0,1-4.6-1.87,8.41,8.41,0,0,1-3.06-2.69,7.72,7.72,0,0,1-1.28-4.64,7.87,7.87,0,0,1,1.34-4.58,8.67,8.67,0,0,1,3.72-3,13.64,13.64,0,0,1,5.44-1A12.17,12.17,0,0,1,78.42,8.2a9,9,0,0,1,3.3,6.46H74a4,4,0,0,0-1.07-2.33,3.17,3.17,0,0,0-2.33-.86,3.06,3.06,0,0,0-2,.67,2.48,2.48,0,0,0-.78,2,2.47,2.47,0,0,0,.7,1.78,5.28,5.28,0,0,0,1.74,1.2c.7.31,1.71.7,3,1.18a32.92,32.92,0,0,1,4.67,1.91A8.9,8.9,0,0,1,81,22.94a7.83,7.83,0,0,1,1.31,4.7A8.19,8.19,0,0,1,81.07,32Z"/><path class="cls-3" d="M99.53,29.83V36H96.29a9.28,9.28,0,0,1-6.4-2q-2.3-2-2.29-6.74V18.61H84.45v-6H87.6V6.81h7.18v5.75h4.71v6H94.78v8.74a2.62,2.62,0,0,0,.57,1.93,2.72,2.72,0,0,0,1.91.55Z"/><path class="cls-3" d="M117.08,13.49a7.34,7.34,0,0,1,2.86,3.32V12.56h7.14V36h-7.14V31.76a7.39,7.39,0,0,1-2.86,3.32,8.51,8.51,0,0,1-4.62,1.21,9.5,9.5,0,0,1-5.18-1.44,10,10,0,0,1-3.62-4.18,14.53,14.53,0,0,1-1.32-6.39,14.45,14.45,0,0,1,1.32-6.4,10,10,0,0,1,3.62-4.16,9.43,9.43,0,0,1,5.18-1.45A8.51,8.51,0,0,1,117.08,13.49Zm-6,6.59a5.93,5.93,0,0,0-1.41,4.2,5.93,5.93,0,0,0,1.41,4.2,5.28,5.28,0,0,0,7.43,0,5.82,5.82,0,0,0,1.45-4.16,5.84,5.84,0,0,0-1.45-4.18,4.89,4.89,0,0,0-3.72-1.53A4.8,4.8,0,0,0,111.06,20.08Z"/><path class="cls-3" d="M142.68,13.57a8.87,8.87,0,0,1,4.6-1.26V20h-2.06a7.12,7.12,0,0,0-4.43,1.22c-1,.81-1.57,2.18-1.57,4.11V36H132V12.56h7.19V17A10.23,10.23,0,0,1,142.68,13.57Z"/><path class="cls-3" d="M163.58,29.83V36h-3.24a9.28,9.28,0,0,1-6.4-2q-2.3-2-2.29-6.74V18.61H148.5v-6h3.15V6.81h7.18v5.75h4.7v6h-4.7v8.74a2.62,2.62,0,0,0,.57,1.93,2.72,2.72,0,0,0,1.91.55Z"/><path class="cls-3" d="M190.92,12.56V36h-7.23V31.76a7.75,7.75,0,0,1-3,3.27,8.66,8.66,0,0,1-4.64,1.22,8.07,8.07,0,0,1-6.4-2.69,10.73,10.73,0,0,1-2.38-7.39V12.56h7.14V25.29A5.21,5.21,0,0,0,175.65,29a4.92,4.92,0,0,0,6.78-.07A5.65,5.65,0,0,0,183.69,25V12.56Z"/><path class="cls-3" d="M215.68,13.72a10,10,0,0,1,3.61,4.16,14.45,14.45,0,0,1,1.32,6.4,14.53,14.53,0,0,1-1.32,6.39,10,10,0,0,1-3.61,4.18,9.56,9.56,0,0,1-5.19,1.44,8.51,8.51,0,0,1-4.62-1.21,7.05,7.05,0,0,1-2.81-3.32V47.17h-7.19V12.56h7.19v4.25a7,7,0,0,1,2.81-3.32,8.51,8.51,0,0,1,4.62-1.22A9.48,9.48,0,0,1,215.68,13.72ZM204.46,20.1A5.89,5.89,0,0,0,203,24.28a5.87,5.87,0,0,0,1.45,4.16,5.29,5.29,0,0,0,7.44,0,6,6,0,0,0,1.4-4.2,6,6,0,0,0-1.4-4.2,4.84,4.84,0,0,0-3.72-1.51A4.91,4.91,0,0,0,204.46,20.1Z"/><path class="cls-3" d="M243.71,6.31V12H231.53v6.51h9.41V24h-9.41V36h-7.18V6.31Z"/><path class="cls-3" d="M270.72,12.56V36h-7.23V31.76a7.75,7.75,0,0,1-3,3.27,8.66,8.66,0,0,1-4.64,1.22,8.11,8.11,0,0,1-6.41-2.69,10.77,10.77,0,0,1-2.37-7.39V12.56h7.14V25.29A5.21,5.21,0,0,0,255.45,29a4.92,4.92,0,0,0,6.78-.07A5.65,5.65,0,0,0,263.49,25V12.56Z"/><path class="cls-3" d="M296.94,15a10.75,10.75,0,0,1,2.38,7.39V36h-7.18V23.23a5.17,5.17,0,0,0-1.24-3.67,4.33,4.33,0,0,0-3.3-1.33,4.48,4.48,0,0,0-3.46,1.39,5.58,5.58,0,0,0-1.29,3.95V36h-7.18V12.56h7.18v4.29a7.79,7.79,0,0,1,3-3.32,8.82,8.82,0,0,1,4.68-1.22A8.1,8.1,0,0,1,296.94,15Z"/><path class="cls-3" d="M317.59,13.49a7.06,7.06,0,0,1,2.81,3.32V4.92h7.18V36H320.4V31.76a7.11,7.11,0,0,1-2.81,3.32A8.51,8.51,0,0,1,313,36.29a9.56,9.56,0,0,1-5.19-1.44,10,10,0,0,1-3.61-4.18,14.53,14.53,0,0,1-1.32-6.39,14.45,14.45,0,0,1,1.32-6.4,10,10,0,0,1,3.61-4.16A9.48,9.48,0,0,1,313,12.27,8.51,8.51,0,0,1,317.59,13.49Zm-6,6.59a5.93,5.93,0,0,0-1.41,4.2,5.93,5.93,0,0,0,1.41,4.2,5.29,5.29,0,0,0,7.44,0,5.86,5.86,0,0,0,1.44-4.16A5.88,5.88,0,0,0,319,20.1a4.91,4.91,0,0,0-3.72-1.53A4.84,4.84,0,0,0,311.56,20.08Z"/></g></g></svg>